<?xml version="1.0" encoding="utf-8"?>
<!-- Generator: Adobe Illustrator 17.0.0, SVG Export Plug-In . SVG Version: 6.00 Build 0)  -->
<!DOCTYPE svg PUBLIC "-//W3C//DTD SVG 1.1//EN" "http://www.w3.org/Graphics/SVG/1.1/DTD/svg11.dtd">
<svg version="1.1" id="Layer_1" xmlns="http://www.w3.org/2000/svg" xmlns:xlink="http://www.w3.org/1999/xlink" x="0px" y="0px"
	 width="1000px" height="1000px" viewBox="0 0 1000 1000" enable-background="new 0 0 1000 1000" xml:space="preserve">
<g>
	<g>
		<path fill="#08F935" d="M987.101,734.085c-4.89-9.248-11.058-18.466-18.398-27.739c-16.725-21.133-39.471-42.523-66.907-64.212
			c-19.141-15.133-39.49-29.554-59.824-42.854c-12.229-8.001-21.838-13.911-27.559-17.264
			c-48.295-27.499-103.935-23.854-132.669,22.455c-1.335,1.585-3.031,3.593-5.009,5.921c-5.409,6.362-10.898,12.715-16.103,18.606
			c-1.124,1.27-1.124,1.27-2.246,2.533c-8.639,9.704-16.546,17.871-16.255,17.674c-31.806,21.526-52.51,19.832-80.551-8.211
			L359.008,438.423c-28.041-28.041-29.737-48.746-8.198-80.571c-0.209,0.308,7.958-7.599,17.662-16.237
			c1.263-1.122,1.263-1.122,2.533-2.246c5.891-5.204,12.245-10.694,18.606-16.103c2.328-1.979,4.334-3.676,5.921-5.009
			c46.308-28.734,49.959-84.362,22.714-132.218c-3.612-6.172-9.523-15.779-17.523-28.01c-13.301-20.333-27.721-40.682-42.854-59.824
			c-21.688-27.436-43.079-50.182-64.212-66.907c-9.273-7.339-18.493-13.507-27.753-18.405C222.823-9.88,170.001-1.949,135.52,32.465
			L90.767,77.259C-57.693,225.718-16.776,402.645,160.634,580.055l129.63,129.671L419.949,839.37
			c177.406,177.406,354.334,218.323,502.805,69.85l44.724-44.765C1001.938,830.062,1009.901,777.154,987.101,734.085z
			 M908.621,805.568l-44.753,44.794c-108.614,108.614-236.035,79.146-385.051-69.867L349.136,650.857L219.511,521.191
			C70.492,372.172,41.024,244.75,149.652,136.123l44.724-44.765c8.602-8.586,21.805-10.567,32.606-4.857
			c4.441,2.349,9.495,5.731,15.002,10.089c15.266,12.081,32.539,30.451,50.566,53.255c13.439,17,26.463,35.379,38.495,53.768
			c7.199,11.006,12.405,19.469,15.104,24.074c7.511,13.199,7.048,18.967,4.834,20.212l-6.278,4.326
			c-1.842,1.536-4.997,4.19-9.037,7.624c-6.73,5.725-13.466,11.542-19.795,17.133c-1.382,1.224-1.382,1.224-2.767,2.453
			c-16.47,14.663-25.768,23.664-31.24,31.739c-43.656,64.507-38.335,129.527,18.265,186.127L502.7,699.871
			c56.6,56.6,121.62,61.923,186.109,18.279c8.092-5.483,17.094-14.782,31.757-31.251c1.229-1.384,1.229-1.384,2.453-2.767
			c5.591-6.328,11.41-13.065,17.133-19.795c3.435-4.037,6.088-7.193,7.624-9.037l4.326-6.278c1.243-2.215,7.013-2.675,20.663,5.095
			c4.154,2.439,12.618,7.646,23.623,14.844c18.392,12.03,36.768,25.054,53.77,38.495c22.804,18.027,41.172,35.301,53.253,50.566
			c4.357,5.505,7.739,10.561,10.095,15.012C919.207,783.791,917.222,796.982,908.621,805.568z"/>
	</g>
</g>
</svg>
