<?xml version="1.0" encoding="utf-8"?>
<!-- Generator: Adobe Illustrator 17.0.0, SVG Export Plug-In . SVG Version: 6.00 Build 0)  -->
<!DOCTYPE svg PUBLIC "-//W3C//DTD SVG 1.1//EN" "http://www.w3.org/Graphics/SVG/1.1/DTD/svg11.dtd">
<svg version="1.1" id="Layer_1" xmlns="http://www.w3.org/2000/svg" xmlns:xlink="http://www.w3.org/1999/xlink" x="0px" y="0px"
	 width="1000px" height="1000px" viewBox="0 0 1000 1000" enable-background="new 0 0 1000 1000" xml:space="preserve">
<g>
	<g>
		<path fill="#08F935" d="M999.998,166.667c0-0.316-0.041-0.623-0.047-0.939c-0.018-0.758-0.057-1.512-0.115-2.27
			c-0.049-0.637-0.105-1.27-0.182-1.898c-0.086-0.709-0.199-1.412-0.322-2.115c-0.115-0.656-0.234-1.309-0.379-1.955
			c-0.15-0.666-0.328-1.324-0.51-1.984c-0.182-0.654-0.365-1.307-0.578-1.947c-0.213-0.641-0.453-1.271-0.697-1.904
			c-0.244-0.633-0.492-1.264-0.766-1.881s-0.576-1.225-0.883-1.83c-0.309-0.609-0.619-1.215-0.955-1.809
			c-0.326-0.576-0.678-1.141-1.035-1.705c-0.381-0.604-0.771-1.199-1.184-1.779c-0.367-0.518-0.752-1.025-1.145-1.529
			c-0.465-0.598-0.941-1.182-1.438-1.752c-0.207-0.238-0.385-0.494-0.598-0.729c-0.213-0.234-0.449-0.434-0.666-0.662
			c-0.51-0.537-1.035-1.055-1.572-1.564c-0.484-0.459-0.973-0.908-1.473-1.34c-0.508-0.438-1.031-0.854-1.561-1.268
			c-0.56-0.438-1.123-0.867-1.699-1.271c-0.52-0.363-1.053-0.703-1.588-1.043c-0.607-0.385-1.217-0.768-1.84-1.117
			c-0.563-0.316-1.139-0.607-1.717-0.898c-0.617-0.311-1.232-0.619-1.863-0.896c-0.629-0.279-1.27-0.525-1.914-0.773
			c-0.605-0.232-1.209-0.465-1.822-0.668c-0.678-0.225-1.369-0.418-2.061-0.609c-0.613-0.168-1.225-0.334-1.844-0.475
			c-0.686-0.154-1.381-0.281-2.08-0.402c-0.664-0.115-1.326-0.221-1.992-0.305c-0.654-0.08-1.314-0.139-1.977-0.189
			c-0.74-0.057-1.478-0.096-2.219-0.111c-0.314-0.008-0.621-0.047-0.938-0.047H41.668c-0.316,0-0.623,0.041-0.937,0.047
			c-0.742,0.018-1.48,0.057-2.219,0.111c-0.664,0.051-1.322,0.109-1.977,0.189c-0.668,0.082-1.33,0.189-1.992,0.305
			c-0.699,0.121-1.395,0.246-2.08,0.402c-0.619,0.141-1.23,0.307-1.844,0.475c-0.693,0.191-1.383,0.383-2.061,0.609
			c-0.613,0.203-1.217,0.436-1.822,0.668c-0.645,0.248-1.285,0.496-1.914,0.773c-0.629,0.277-1.246,0.586-1.863,0.896
			c-0.578,0.291-1.154,0.582-1.717,0.898c-0.623,0.352-1.23,0.732-1.84,1.117c-0.537,0.34-1.07,0.682-1.59,1.045
			c-0.576,0.404-1.139,0.834-1.697,1.27c-0.529,0.412-1.053,0.83-1.562,1.268c-0.502,0.432-0.988,0.881-1.473,1.34
			c-0.539,0.508-1.062,1.027-1.572,1.564c-0.217,0.229-0.453,0.428-0.666,0.662c-0.215,0.234-0.391,0.49-0.598,0.729
			c-0.496,0.57-0.973,1.154-1.437,1.752c-0.393,0.504-0.777,1.012-1.145,1.529c-0.412,0.582-0.801,1.178-1.184,1.779
			c-0.357,0.564-0.709,1.129-1.035,1.705c-0.336,0.592-0.648,1.197-0.955,1.809c-0.307,0.607-0.607,1.213-0.883,1.83
			c-0.275,0.617-0.521,1.248-0.766,1.881c-0.244,0.633-0.484,1.264-0.697,1.904c-0.213,0.643-0.396,1.295-0.58,1.949
			c-0.184,0.658-0.359,1.316-0.51,1.98c-0.146,0.646-0.266,1.301-0.381,1.959c-0.123,0.703-0.236,1.404-0.322,2.111
			c-0.078,0.631-0.135,1.264-0.184,1.902c-0.059,0.754-0.098,1.508-0.115,2.264c-0.008,0.316-0.047,0.623-0.047,0.941v666.663
			c0,0.186,0.025,0.363,0.027,0.547c0.01,0.771,0.062,1.541,0.117,2.311c0.043,0.631,0.074,1.266,0.145,1.889
			c0.074,0.648,0.189,1.287,0.295,1.932c0.117,0.723,0.221,1.447,0.375,2.156c0.117,0.539,0.273,1.068,0.412,1.604
			c0.201,0.777,0.391,1.557,0.635,2.316c0.168,0.523,0.379,1.035,0.568,1.553c0.27,0.736,0.525,1.477,0.834,2.191
			c0.262,0.605,0.57,1.193,0.861,1.787c0.293,0.596,0.566,1.203,0.885,1.783c0.375,0.684,0.803,1.34,1.217,2.004
			c0.293,0.467,0.566,0.947,0.877,1.402c0.449,0.66,0.951,1.291,1.441,1.928c0.336,0.436,0.656,0.883,1.01,1.305
			c0.467,0.559,0.977,1.088,1.477,1.625c0.441,0.477,0.875,0.959,1.338,1.414c0.449,0.439,0.932,0.855,1.406,1.277
			c0.574,0.514,1.146,1.025,1.75,1.508c0.145,0.115,0.27,0.244,0.416,0.357c0.32,0.25,0.662,0.453,0.988,0.691
			c0.646,0.475,1.295,0.941,1.969,1.379c0.512,0.332,1.031,0.637,1.553,0.943c0.648,0.381,1.301,0.754,1.973,1.102
			c0.574,0.297,1.152,0.568,1.734,0.836c0.643,0.295,1.289,0.582,1.949,0.846c0.629,0.252,1.264,0.477,1.902,0.695
			c0.637,0.219,1.273,0.428,1.924,0.617c0.684,0.197,1.371,0.369,2.062,0.529c0.623,0.146,1.246,0.287,1.879,0.404
			c0.744,0.139,1.49,0.244,2.238,0.342c0.598,0.078,1.193,0.156,1.799,0.209c0.803,0.068,1.604,0.1,2.406,0.121
			c0.402,0.012,0.795,0.061,1.201,0.061H958.33c0.406,0,0.799-0.049,1.201-0.061c0.803-0.023,1.605-0.053,2.406-0.121
			c0.605-0.053,1.201-0.131,1.799-0.207c0.748-0.098,1.494-0.203,2.24-0.342c0.633-0.117,1.256-0.258,1.879-0.404
			c0.691-0.162,1.377-0.332,2.063-0.529c0.65-0.188,1.287-0.398,1.924-0.617c0.639-0.219,1.273-0.445,1.902-0.697
			c0.66-0.264,1.305-0.549,1.947-0.846c0.584-0.268,1.164-0.539,1.736-0.836c0.67-0.346,1.322-0.719,1.969-1.1
			c0.521-0.307,1.043-0.613,1.555-0.945c0.674-0.438,1.322-0.902,1.967-1.377c0.326-0.24,0.67-0.443,0.99-0.693
			c0.146-0.113,0.271-0.244,0.416-0.359c0.602-0.48,1.172-0.992,1.746-1.506c0.475-0.424,0.957-0.84,1.408-1.279
			c0.463-0.453,0.895-0.936,1.334-1.41c0.502-0.539,1.012-1.07,1.48-1.629c0.352-0.42,0.672-0.867,1.006-1.303
			c0.492-0.639,0.992-1.27,1.443-1.93c0.311-0.453,0.582-0.934,0.875-1.398c0.416-0.666,0.844-1.324,1.219-2.008
			c0.318-0.576,0.59-1.18,0.881-1.773c0.291-0.598,0.604-1.188,0.865-1.797c0.309-0.715,0.564-1.453,0.834-2.188
			c0.189-0.52,0.4-1.031,0.57-1.557c0.244-0.758,0.434-1.535,0.635-2.311c0.139-0.537,0.297-1.068,0.414-1.609
			c0.152-0.707,0.258-1.43,0.373-2.15c0.105-0.646,0.221-1.289,0.295-1.938c0.07-0.621,0.102-1.252,0.145-1.883
			c0.053-0.771,0.107-1.543,0.117-2.316c0.002-0.184,0.027-0.361,0.027-0.545V166.667H999.998z M83.336,260.854l205.505,186.818
			L83.336,711.892V260.854z M549.097,482.377c-27.851,25.305-70.343,25.305-98.203-0.008L149.447,208.333h701.109L549.097,482.377z
			 M350.684,503.893l44.164,40.146c59.648,54.195,150.656,54.195,210.296,0.008l44.172-40.154l223.823,287.772H126.861
			L350.684,503.893z M711.159,447.672l205.505-186.818v451.039L711.159,447.672z"/>
	</g>
</g>
</svg>
