<?xml version="1.0" encoding="utf-8"?>
<!-- Generator: Adobe Illustrator 17.0.0, SVG Export Plug-In . SVG Version: 6.00 Build 0)  -->
<!DOCTYPE svg PUBLIC "-//W3C//DTD SVG 1.1//EN" "http://www.w3.org/Graphics/SVG/1.1/DTD/svg11.dtd">
<svg version="1.1" id="Layer_1" xmlns="http://www.w3.org/2000/svg" xmlns:xlink="http://www.w3.org/1999/xlink" x="0px" y="0px"
	 width="1000px" height="1000px" viewBox="0 0 1000 1000" enable-background="new 0 0 1000 1000" xml:space="preserve">
<g>
	<g>
		<path fill="#08F935" d="M1000,500c0-255.848-192.184-466.787-440.055-496.41c-0.09-0.01-0.178-0.02-0.268-0.031
			c-3.742-0.445-7.492-0.855-11.26-1.219c-0.68-0.066-1.363-0.119-2.043-0.182c-3.234-0.297-6.473-0.582-9.725-0.816
			c-1.316-0.096-2.641-0.164-3.959-0.25c-2.676-0.172-5.35-0.352-8.035-0.482c-2.117-0.104-4.24-0.164-6.363-0.242
			c-1.953-0.07-3.902-0.162-5.861-0.211C508.297,0.055,504.152,0,500,0s-8.297,0.055-12.432,0.158
			c-1.959,0.047-3.906,0.141-5.861,0.211c-2.121,0.076-4.246,0.139-6.363,0.242c-2.688,0.131-5.359,0.309-8.035,0.482
			c-1.32,0.086-2.643,0.154-3.959,0.25c-3.252,0.236-6.49,0.52-9.725,0.816c-0.682,0.062-1.363,0.115-2.043,0.182
			c-3.766,0.361-7.518,0.773-11.26,1.219c-0.09,0.01-0.178,0.02-0.268,0.031C192.184,33.213,0,244.152,0,500
			c0,142.629,59.729,271.305,155.531,362.396C232.715,948.229,360.617,1000,500,1000s267.285-51.771,344.469-137.604
			C940.271,771.305,1000,642.629,1000,500z M85.402,541.666h206.91c1.768,57.734,7.191,112.766,15.928,163.361
			c-42.992,17.957-83.371,41.934-120.039,71.32C131.619,712.557,94.303,631.297,85.402,541.666z M186.252,225.848
			c34.398,29.803,75.656,54.176,121.482,72.148c-8.436,49.766-13.691,103.746-15.424,160.338H85.402
			C94.199,369.73,130.758,289.303,186.252,225.848z M914.598,458.334h-206.91c-1.732-56.592-6.986-110.572-15.424-160.338
			c45.826-17.973,87.084-42.346,121.482-72.148C869.242,289.303,905.801,369.73,914.598,458.334z M375.736,458.334
			c1.705-48.418,6.314-94.318,13.055-136.328c35.674,7.414,73.004,11.328,111.209,11.328s75.535-3.916,111.209-11.328
			c6.74,42.012,11.352,87.912,13.055,136.328H375.736z M624.264,541.666c-1.721,48.867-6.398,95.172-13.24,137.5
			c-35.992-8.213-73.172-12.5-111.023-12.5s-75.031,4.287-111.023,12.5c-6.842-42.328-11.521-88.633-13.24-137.5H624.264z
			 M674.264,215.326c-11.383-41.859-25.428-79.098-41.85-110.348c43.037,14.502,83.435,36.023,119.742,63.793
			C729.619,187.068,703.324,202.746,674.264,215.326z M594.297,240.418C564.238,246.664,532.574,250,500,250
			s-64.238-3.336-94.297-9.582C430.633,144.531,466.947,83.332,500,83.332S569.367,144.533,594.297,240.418z M325.736,215.326
			c-29.061-12.58-55.355-28.258-77.895-46.553c36.309-27.77,76.705-49.291,119.742-63.793
			C351.164,136.229,337.121,173.465,325.736,215.326z M326.619,787.928c11.246,40.623,25.025,76.795,41.063,107.273
			c-42.607-14.26-82.148-35.209-117.369-61.613C274.154,815.629,299.719,800.326,326.619,787.928z M406.006,760.734
			C436.449,753.668,467.934,750,500,750s63.551,3.668,93.994,10.734C569.072,855.955,532.92,916.668,500,916.668
			S430.926,855.955,406.006,760.734z M632.318,895.201c16.037-30.479,29.818-66.65,41.063-107.273
			c26.9,12.398,52.463,27.701,76.305,45.66C714.467,859.992,674.926,880.941,632.318,895.201z M691.76,705.029
			c8.738-50.596,14.162-105.627,15.928-163.361h206.91c-8.9,89.631-46.219,170.891-102.799,234.682
			C775.131,746.961,734.752,722.984,691.76,705.029z"/>
	</g>
</g>
</svg>
